# xmcd CD database file
#
# Track frame offsets:
#	150
#	39666
#	61830
#	99045
#	124844
#	151619
#	178611
#	208016
#	238327
#
# Disc length: 3375 seconds
#
# Revision: 0
# Processed by: cddbd v1.5.2PL0 Copyright (c) Steve Scherf et al.
# Submitted via: CDex 1.51
#
DISCID=6e0d2d09
DTITLE=Sonny Rollins - Freedom Suite - ANight at the Village Vanguard - Newk's Time CD2
DYEAR=1957
DGENRE=Jazz
TTITLE0=Sonnymoon for Two
TTITLE1=I Can't Get Started
TTITLE2=A Night in Tunesia
TTITLE3=Tune Up
TTITLE4=Asiatic Raes
TTITLE5=Wonderful Wonderful
TTITLE6=The Surrey with the Fringe on Top
TTITLE7=Blues for Philly Joe
TTITLE8=Namely You
EXTD=YEAR: 1957
EXTT0=
EXTT1=
EXTT2=
EXTT3=
EXTT4=
EXTT5=
EXTT6=
EXTT7=
EXTT8=
PLAYORDER=
